<svg t="1575725404153" class="icon" viewBox="0 0 1024 1024" version="1.1" xmlns="http://www.w3.org/2000/svg" p-id="8088" width="200" height="200"><path d="M246.688 209.888v448.416h521.28a113.536 113.536 0 0 1 105.376-71.52c47.872 0 88.64 29.664 105.408 71.52h46.208V209.888H246.688z m481.728 315.232a43.52 43.52 0 0 1-43.552 43.552h-174.336a43.52 43.52 0 0 1-43.584-43.552v-174.336c0-24.064 19.488-43.584 43.584-43.584h139.488l-26.176 26.144h-104.608a26.144 26.144 0 0 0-26.144 26.144v156.896c0 14.432 11.744 26.144 26.144 26.144h156.928a26.144 26.144 0 0 0 26.176-26.144v-104.608l26.08-26.176v139.52z m-3.52-157.024a39.04 39.04 0 0 1-38.752 10.048l-65.536 65.536c3.808 13.344 0 28.704-10.56 39.2a40.992 40.992 0 0 1-46.368 8.16l27.296-27.232a13.568 13.568 0 0 0-19.168-19.168l-27.296 27.296a40.32 40.32 0 0 1 8.128-46.4c10.56-10.528 25.824-13.856 39.264-10.528l65.056-65.088c-3.84-13.376 0-28.672 10.528-39.2a40.384 40.384 0 0 1 46.368-8.128l-27.232 27.264a13.536 13.536 0 0 0 19.072 19.136l27.328-27.264a40.32 40.32 0 0 1-8.128 46.368z" p-id="8089"></path><path d="M223.104 639.904H256.96v17.504H223.104zM736.992 743.776a6.24 6.24 0 0 1-6.24 6.272H285.92a6.272 6.272 0 0 1 0-12.544h444.832c3.488 0 6.24 2.816 6.24 6.272z" p-id="8090"></path><path d="M342.624 658.272h9.12v77.248h-9.12z" p-id="8091"></path><path d="M346.176 776.64a16.896 1.568 90 1 0 3.136 0 16.896 1.568 90 1 0-3.136 0Z" p-id="8092"></path><path d="M341.056 787.36a16.928 1.568 90 1 0 3.136 0 16.928 1.568 90 1 0-3.136 0Z" p-id="8093"></path><path d="M350.144 787.36a16.928 1.568 90 1 0 3.136 0 16.928 1.568 90 1 0-3.136 0Z" p-id="8094"></path><path d="M328.672 754.624a19.04 5.056 0 1 0 38.08 0 19.04 5.056 0 1 0-38.08 0Z" p-id="8095"></path><path d="M628.608 658.272h9.088v77.248h-9.088z" p-id="8096"></path><path d="M631.552 776.64a16.896 1.568 90 1 0 3.136 0 16.896 1.568 90 1 0-3.136 0Z" p-id="8097"></path><path d="M626.464 787.36a16.928 1.568 90 1 0 3.136 0 16.928 1.568 90 1 0-3.136 0Z" p-id="8098"></path><path d="M635.584 787.36a16.928 1.568 90 1 0 3.136 0 16.928 1.568 90 1 0-3.136 0Z" p-id="8099"></path><path d="M614.112 754.624a19.04 5.056 0 1 0 38.08 0 19.04 5.056 0 1 0-38.08 0Z" p-id="8100"></path><path d="M478.848 650.432h8.864v51.296h-8.864z" p-id="8101"></path><path d="M447.488 701.728h70.88l37.824 84.096h-136.896z" p-id="8102"></path><path d="M92.64 209.888l-90.24 143.168v304.352h5.152a113.6 113.6 0 0 1 105.12-70.656c47.52 0 88.128 29.248 105.12 70.656h14.88V209.888H92.64z m118.304 314.528H29.12v-174.144l59.264-91.104h122.592v265.248z" p-id="8103"></path><path d="M112.64 701.728m-101.76 0a101.76 101.76 0 1 0 203.52 0 101.76 101.76 0 1 0-203.52 0Z" p-id="8104"></path><path d="M873.472 701.728m-101.728 0a101.728 101.728 0 1 0 203.456 0 101.728 101.728 0 1 0-203.456 0Z" p-id="8105"></path></svg>