<svg t="1575725273496" class="icon" viewBox="0 0 1024 1024" version="1.1" xmlns="http://www.w3.org/2000/svg" p-id="6229" width="200" height="200"><path d="M812.3 768.9h-37.1v-263c0-134.2-109.2-243.3-243.3-243.3h-30.2c-134.2 0-243.3 109.1-243.3 243.3v263H223c-50.2 0-91 40.8-91 91v9.4c0 50.2 40.8 91 91 91h589.3c50.2 0 91-40.8 91-91v-9.4c0.1-50.2-40.8-91-91-91z m-499.6-263c0-104.2 84.8-189 189-189h30.2c104.2 0 189 84.8 189 189v263H312.7v-263zM849 869.2c0 20.2-16.4 36.7-36.7 36.7H223c-20.2 0-36.7-16.4-36.7-36.7v-9.4c0-20.2 16.4-36.7 36.7-36.7h589.3c20.2 0 36.7 16.4 36.7 36.7v9.4z" fill="#e6e6e6" p-id="6230"></path><path d="M502.8 222.5c-15 0-27.2-12.2-27.2-27.2V91c0-15 12.2-27.2 27.2-27.2S530 76 530 91v104.3c0 15.1-12.2 27.2-27.2 27.2zM333.9 260.7c-9.4 0-18.5-4.9-23.6-13.6l-52.2-90.3c-7.5-13-3.1-29.6 9.9-37.1s29.6-3 37.1 9.9l52.2 90.3c7.5 13 3.1 29.6-9.9 37.1-4.2 2.5-8.9 3.7-13.5 3.7zM220.5 364.5c-4.6 0-9.3-1.2-13.6-3.6l-90.3-52.2c-13-7.5-17.4-24.1-9.9-37.1 7.5-13 24.1-17.5 37.1-9.9l90.3 52.2c13 7.5 17.4 24.1 9.9 37.1-5 8.6-14.1 13.5-23.5 13.5zM805.3 364.5c-9.4 0-18.5-4.9-23.6-13.6-7.5-13-3.1-29.6 9.9-37.1l90.3-52.2c13-7.5 29.6-3.1 37.1 9.9s3.1 29.6-9.9 37.1l-90.3 52.2c-4.2 2.5-8.9 3.7-13.5 3.7zM681.7 260.7c-4.6 0-9.3-1.2-13.6-3.6-13-7.5-17.4-24.1-9.9-37.1l52.2-90.3c7.5-13 24.1-17.5 37.1-9.9 13 7.5 17.4 24.1 9.9 37.1l-52.2 90.3c-5 8.6-14.1 13.5-23.5 13.5z" fill="#e6e6e6" opacity=".5" p-id="6231"></path></svg>