<svg class="icon" viewBox="0 0 1025 1024" xmlns="http://www.w3.org/2000/svg" width="300.293" height="300"><defs><style/></defs><path d="M895.893 767.088h-767.48C57.77 767.088 0 710.209 0 639.566v63.957c0 70.644 57.768 128.033 128.414 128.033h767.48c70.644 0 127.412-57.39 127.412-128.033v-63.957c0 70.644-56.768 127.522-127.413 127.522z"/><path d="M895.893 863.279h-767.48C57.77 863.279 0 806.144 0 735.5v63.957c0 70.644 57.768 128.289 128.414 128.289h767.48c70.644 0 127.412-57.646 127.412-128.289v-63.957c0 70.644-56.768 127.778-127.413 127.778z"/><path d="M895.893 95.935h-767.48C57.77 95.935.5 153.203.5 223.848v383.74c0 70.644 57.269 127.913 127.914 127.913h767.48c70.644 0 127.913-57.269 127.913-127.913v-383.74c0-70.646-57.269-127.913-127.914-127.913zM499.697 387.311c26.91 3.465 97.91 12.679 97.91 86.834.02 39.963-20.681 60.723-37.643 71.111-12.79 7.835-29.335 12.765-47.494 14.746.935 2.411-.317 4.989-.317 7.733v21.494c0 11.88-4.108 21.493-15.989 21.493-11.88 0-15.989-9.612-15.989-21.493v-21.494c0-3.046-2.949-5.921-1.807-8.546-43.56-7.318-85.854-38.36-85.854-98.016 0-11.88 9.64-21.493 21.52-21.493 11.88 0 21.55 9.613 21.55 21.493 0 52.746 45.89 56.839 59.932 56.839 18.177 0 33.327-3.252 43.402-9.424 7.138-4.366 17.078-12.698 17.078-34.443 0-24.116-8.518-37.57-59.983-44.183-82.216-10.58-92.175-54.698-91.88-80.032.436-37.947 12.085-78.082 76.041-87.892v-16.697c0-11.88 4.109-21.494 15.99-21.494 11.88 0 15.988 9.613 15.988 21.494v15.743c31.979 2.917 43.52 11.43 57.77 25.983 26.32 26.867 28.237 62.423 28.153 66.39-.251 11.857-10.705 20.82-21.934 21.053-11.818-.252-21.22-9.992-21.053-21.789 0-.817-.294-21.829-14.251-35.829-9.383-9.423-23.656-14.188-42.399-14.188-36.1 0-54.592 16.056-54.95 47.73-.232 19.647 18.681 32.051 56.209 36.877z"/></svg>