<svg t="1575725298072" class="icon" viewBox="0 0 1024 1024" version="1.1" xmlns="http://www.w3.org/2000/svg" p-id="6949" width="200" height="200"><path d="M731.428571 438.857143m73.142858 0l73.142857 0q73.142857 0 73.142857 73.142857l0 438.857143q0 73.142857-73.142857 73.142857l-73.142857 0q-73.142857 0-73.142858-73.142857l0-438.857143q0-73.142857 73.142858-73.142857Z" p-id="6950"></path><path d="M402.285714 548.571429m73.142857 0l73.142858 0q73.142857 0 73.142857 73.142857l0 329.142857q0 73.142857-73.142857 73.142857l-73.142858 0q-73.142857 0-73.142857-73.142857l0-329.142857q0-73.142857 73.142857-73.142857Z" p-id="6951"></path><path d="M73.142857 694.857143m73.142857 0l73.142857 0q73.142857 0 73.142858 73.142857l0 182.857143q0 73.142857-73.142858 73.142857l-73.142857 0q-73.142857 0-73.142857-73.142857l0-182.857143q0-73.142857 73.142857-73.142857Z" p-id="6952"></path><path d="M922.148571 298.788571a54.857143 54.857143 0 0 1-54.857142-54.857142V109.714286h-134.217143a54.857143 54.857143 0 0 1 0-109.714286h189.074285a54.857143 54.857143 0 0 1 54.857143 54.857143v189.074286a54.857143 54.857143 0 0 1-54.857143 54.857142z" p-id="6953"></path><path d="M103.68 463.542857a54.857143 54.857143 0 0 1-37.851429-94.354286L184.32 256a219.428571 219.428571 0 0 1 297.508571-9.874286 111.725714 111.725714 0 0 0 146.285715-1.28L832 73.142857a54.857143 54.857143 0 1 1 70.582857 83.931429l-203.337143 170.422857a222.171429 222.171429 0 0 1-288.548571 1.645714 110.994286 110.994286 0 0 0-150.125714 5.302857l-118.857143 113.92a54.857143 54.857143 0 0 1-38.034286 15.177143z" p-id="6954"></path></svg>