<svg t="1575725153948" class="icon" viewBox="0 0 1024 1024" version="1.1" xmlns="http://www.w3.org/2000/svg" p-id="6088" width="200" height="200"><path d="M526.4 273.4c-1.6-4.3-0.9-9.3 1.7-12.9L630 120.2c6.2-8.5 0.7-21.1-9.2-21.1H366.2c-9.9 0-15.4 12.6-9.2 21.1l101.9 140.3c2.7 3.7 3.3 8.6 1.7 12.9L306.5 699.1c-1.7 4.6-0.8 9.9 2.2 13.6l176.1 212.2c4.7 5.6 12.7 5.6 17.4 0l176.1-212.2c3.1-3.7 3.9-9 2.2-13.6L526.4 273.4zM716 485.2L599.4 356.7c-9.3-10.3-24.6 1.5-19 14.7l74.4 175c3.5 8.2 13.2 10 19 3.7l42.2-46.5c4.6-5.1 4.6-13.4 0-18.4z" p-id="6089"></path></svg>