<svg t="1575724270253" class="icon" viewBox="0 0 1024 1024" version="1.1" xmlns="http://www.w3.org/2000/svg" p-id="1332" width="200" height="200"><path d="M511.7 81.5c2 0 3.9 0.3 5.8 0.9l329 99.7c8.5 2.6 14.2 10.3 14.2 19.1v425.5c0 40.5-11.2 80.2-32.3 114.7-21.1 34.6-51.3 62.6-87.3 81.1L511.7 940.1 282.4 822.5c-36-18.5-66.2-46.5-87.3-81.1-21.1-34.6-32.3-74.2-32.3-114.7V201.2c0-8.9 5.7-16.6 14.2-19.1l329-99.7c1.8-0.6 3.8-0.9 5.7-0.9m0-80c-9.8 0-19.5 1.4-29 4.3l-329 99.7c-42.2 12.8-71 51.6-71 95.7v425.5c0 112.5 63 215.6 163.1 266.9L484.4 1016c8.6 4.4 18 6.6 27.4 6.6 9.4 0 18.8-2.2 27.4-6.6l238.5-122.3c100.1-51.3 163.1-154.4 163.1-266.9V201.2c0-44.1-28.8-82.9-71-95.7l-329-99.7c-9.5-2.9-19.3-4.3-29.1-4.3z" fill="" p-id="1333"></path><path d="M474.3 698c-10.2 0-20.5-3.9-28.3-11.7l-123-123c-15.6-15.6-15.6-40.9 0-56.6s40.9-15.6 56.6 0l94.7 94.7L704 371.7c15.6-15.6 40.9-15.6 56.6 0s15.6 40.9 0 56.6l-258 258c-7.9 7.8-18.1 11.7-28.3 11.7zM881 339.6c-3.8 0-7.7-0.6-11.6-1.7L530.7 235.2c-11.9-3.6-24.6-3.6-36.5 0L155.5 337.8c-21.1 6.4-43.5-5.5-49.9-26.7s5.5-43.5 26.7-49.9L471 158.6c27.1-8.2 55.8-8.2 82.9 0l338.7 102.6c21.1 6.4 33.1 28.7 26.7 49.9-5.3 17.3-21.1 28.5-38.3 28.5z" fill="" p-id="1334"></path></svg>