<svg class="icon" viewBox="0 0 1024 1024" xmlns="http://www.w3.org/2000/svg" width="300" height="300"><defs><style/></defs><path d="M896 1024H128A128 128 0 0 1 0 896V341.333a38.827 38.827 0 0 1 5.974-20.906l145.92-256A128 128 0 0 1 262.827 0h498.347a128 128 0 0 1 110.933 64.427l145.92 256a38.827 38.827 0 0 1 5.973 20.906V896a128 128 0 0 1-128 128zM85.334 384v512A42.667 42.667 0 0 0 128 938.667h768A42.667 42.667 0 0 0 938.667 896V384zm30.72-85.333h791.893l-109.653-192a42.667 42.667 0 0 0-37.12-21.334H262.827a42.667 42.667 0 0 0-37.12 21.334zm609.28 320H298.667a42.667 42.667 0 0 1 0-85.334h426.667a42.667 42.667 0 0 1 0 85.334z"/></svg>