<svg class="icon" viewBox="0 0 1024 1024" xmlns="http://www.w3.org/2000/svg" width="300" height="300"><defs><style/></defs><path d="M843.093 720.213L723.627 655.36c-6.827-3.413-17.067-3.413-20.48 3.413-54.614 58.027-122.88 92.16-194.56 92.16s-143.36-34.133-197.974-92.16c-6.826-6.826-13.653-6.826-20.48-3.413l-109.226 54.613C75.093 747.52 0 849.92 0 965.973v40.96C0 1017.173 6.827 1024 17.067 1024h989.866c3.414 0 10.24-3.413 13.654-3.413s3.413-6.827 3.413-13.654v-30.72c0-116.053-75.093-221.866-180.907-256zM392.533 409.6h34.134c10.24 0 17.066-6.827 17.066-17.067s-6.826-17.066-17.066-17.066h-34.134c-10.24 0-17.066 6.826-17.066 17.066s6.826 17.067 17.066 17.067zm204.8 0h34.134c10.24 0 17.066-6.827 17.066-17.067s-6.826-17.066-17.066-17.066h-34.134c-10.24 0-17.066 6.826-17.066 17.066s6.826 17.067 17.066 17.067z"/><path d="M204.8 392.533c0 58.027 27.307 102.4 61.44 102.4C303.787 624.64 402.773 716.8 508.587 716.8c112.64 0 215.04-85.333 252.586-204.8 34.134 0 61.44-44.373 61.44-102.4 0-51.2-13.653-85.333-34.133-98.987V296.96l-3.413-58.027V153.6c0-6.827-3.414-10.24-6.827-13.653-3.413-3.414-10.24-3.414-13.653-3.414l-218.454 64.854c-10.24 3.413-13.653 3.413-20.48 3.413L256 180.907c-3.413 0-10.24 0-13.653 3.413 0 3.413-3.414 6.827-3.414 13.653v95.574c-20.48 10.24-34.133 44.373-34.133 98.986zm51.2-68.266c3.413 0 10.24-3.414 13.653-6.827 3.414-3.413 3.414-10.24 3.414-20.48v-30.72C310.613 279.893 392.533 307.2 512 307.2s201.387-27.307 238.933-40.96v58.027c0 10.24 6.827 17.066 17.067 17.066 6.827 0 17.067 20.48 17.067 68.267 0 40.96-17.067 68.267-27.307 68.267h-3.413c-3.414-3.414-10.24-3.414-17.067 0-3.413 3.413-10.24 6.826-10.24 10.24-27.307 112.64-122.88 194.56-221.867 194.56-92.16 0-184.32-92.16-215.04-211.627 0-6.827-3.413-10.24-10.24-10.24-3.413-3.413-10.24 0-17.066 0h-3.414c-10.24 0-27.306-27.307-27.306-68.267 6.826-47.786 17.066-68.266 23.893-68.266z"/><path d="M153.6 136.533l375.467 34.134h3.413l320.853-95.574v143.36l-30.72 64.854c-3.413 3.413-3.413 6.826-3.413 13.653l34.133 102.4c3.414 6.827 10.24 10.24 17.067 10.24s13.653-3.413 17.067-10.24l34.133-102.4v-13.653l-34.133-64.854V44.373c0-3.413-3.414-3.413-3.414-3.413l-3.413-3.413h-6.827L498.347 3.413h-6.827l-341.333 102.4c-10.24 0-13.654 6.827-13.654 13.654 0 10.24 6.827 17.066 17.067 17.066z"/></svg>