<svg class="icon" viewBox="0 0 1024 1024" xmlns="http://www.w3.org/2000/svg" width="300" height="300"><defs><style/></defs><path d="M403.822 711.582l1.097 23.748-14.02 23.137 42.984 187.782-60.733 29.501-60.732-29.5L355.4 758.466l-14.019-23.137 1.073-23.748c26.77-1.511 34.62-1.511 61.367 0zm0 0M361.326 0H956.44c18.579 0 35.475 7.607 47.714 19.846 12.24 12.19 19.846 29.111 19.846 47.738v371.614c0 18.53-7.607 35.45-19.846 47.714l-.049.024v.05c-12.288 12.19-29.16 19.796-47.665 19.796H693.37l-93.087 73.143-33.158 26.015 6.364-41.643 7.729-50.859 33.036 4.974-1.39 9.143 152.6-119.881 20.675 26.234-50.176 39.448h220.453c9.411 0 17.92-3.828 24.088-9.996l.05-.049c6.143-6.12 9.971-14.701 9.971-24.113V67.584c0-9.362-3.828-17.92-10.02-24.113-6.242-6.168-14.775-10.045-24.089-10.045h-595.09a34.132 34.132 0 0 0-24.162 9.996c-6.193 6.242-9.996 14.775-9.996 24.186v73.07h-33.426V67.584c0-18.578 7.582-35.45 19.797-47.69l.098-.048C325.9 7.606 342.747 0 361.326 0zm0 0"/><path d="M567.101 398.214C578.56 245.59 557.056 157.696 374.077 182.2c-62.098 8.29-129.536-9.948-168.034 18.237-48.371 45.641-51.81 114.127-38.668 194.462a90.207 90.207 0 0 0-8.728 5.34l-8.631 5.827-.146 10.337c-.464 26.77 2.877 49.347 10.093 66.658 6.559 15.75 16.238 27.453 29.16 34.523 15.384 52.444 37.498 91.795 65.146 120.125 30.135 30.915 66.414 48.445 107.447 55.345l3.681.585 3.657-.756c45.422-9.557 81.725-27.892 110.641-58.49 26.795-28.306 46.812-66.584 61.489-117.686 12.459-7.242 21.797-19.066 28.087-34.646 6.924-17.213 10.094-39.4 9.655-65.633l-.147-10.338-8.63-5.827c-1-.78-2-1.438-3.048-2.048zm0 0"/><path d="M122.392 692.858l-8.143-.049-6.241 5.413c-43.813 38.253-69.51 93.964-84.432 150.82-14.409 55.174-18.749 111.47-19.578 152.99L3.56 1024H725.797l2.12-19.285c5.413-49.981-3.144-113.299-21.796-171.35-17.75-55.442-45.031-106.886-78.507-138.532l-6.582-6.242-8.875.317-104.546 3.584v43.081l96.647-3.315c25.136 26.892 46.275 68.656 60.879 114.273 14.506 45.202 22.308 93.525 21.187 134.29H47.787c1.755-35.645 6.412-78.799 17.505-120.93 12.24-46.81 32.402-92.232 65.244-123.879l87.625.78v-43.08l-95.769-.854zm0 0M785.481 281.43v25.429h139.362v-25.43H785.48zm0 0M638.415 281.43v25.429h124.977v-25.43H638.415zm0 0M854.626 195.316v25.43h70.217v-25.43h-70.217zm0 0M798.16 195.316v25.43h28.257v-25.43h-28.258zm0 0M716.337 195.316v25.43h56.442v-25.43h-56.442zm0 0M638.415 195.316v25.43h56.369v-25.43h-56.369zm0 0M638.415 115.688v25.429h286.428v-25.43H638.415zm0 0M190.318 435.2c.877 12.995 3.072 23.918 6.656 32.451 3.56 8.68 8.46 14.263 14.701 16.189l10.606 3.267 2.901 10.679c13.63 50.249 33.232 86.796 57.808 112.006 22.869 23.43 50.444 37.132 81.7 43.081 35.523-8.07 63.756-22.577 86.016-46.08 23.577-24.893 41.155-60.44 54.297-109.446l2.755-10.191 9.996-3.535c6.095-2.122 10.898-7.851 14.433-16.53 3.365-8.485 5.535-19.164 6.413-31.818-5.852.049-11.752.195-18.53 1.024l-2.682-9.07-5.73.342-3.29-17.408c-2.56-13.58-6.51-26.161-11.582-37.718-15.311 6.461-32.45-5.437-47.933-14.36l-7.826 24.6-12.678-1.657 1.682-15.02-13.336 21.432-11.874-2.365 11.679-31.769c-65.341 57.978-141.751 54.272-184.369 21.846a160.564 160.564 0 0 0-3.803 10.118c-2.95 11.751-6.218 27.038-9.168 38.717l-.78 4.266-.292-.024c-.634 2.34-1.22 4.413-1.829 6.217-5.364-3.51-16.238-.707-25.941.756zm0 0"/></svg>