<svg t="1575724772068" class="icon" viewBox="0 0 1024 1024" version="1.1" xmlns="http://www.w3.org/2000/svg" p-id="5478" width="200" height="200"><path d="M512 73.142857A438.857143 438.857143 0 1 1 73.142857 512 438.857143 438.857143 0 0 1 512 73.142857m0-73.142857a512 512 0 1 0 512 512A512 512 0 0 0 512 0z" p-id="5479"></path><path d="M487.497143 827.062857a42.422857 42.422857 0 0 1-10.605714-1.462857 36.571429 36.571429 0 0 1-25.965715-34.925714V593.92l-133.485714 4.571429a36.571429 36.571429 0 0 1-29.257143-60.16l275.565714-329.142858a36.571429 36.571429 0 0 1 42.605715-8.045714 36.571429 36.571429 0 0 1 21.211428 38.765714L598.125714 429.714286l108.617143-4.205715a36.571429 36.571429 0 0 1 33.28 18.285715 36.571429 36.571429 0 0 1-1.462857 38.217143l-220.708571 329.142857a36.571429 36.571429 0 0 1-30.354286 15.908571z m0-307.565714A36.571429 36.571429 0 0 1 512 530.285714a35.474286 35.474286 0 0 1 11.337143 26.148572v115.017143l113.737143-169.508572-81.005715 3.108572a36.571429 36.571429 0 0 1-37.485714-42.057143l16.091429-105.325715-138.605715 164.571429 89.234286-2.925714z" p-id="5480"></path></svg>