<svg class="icon" viewBox="0 0 1024 1024" xmlns="http://www.w3.org/2000/svg" width="300" height="300"><defs><style/></defs><path d="M955.077 610.462H896c-15.754 0-29.538 15.753-29.538 29.538v196.923c0 15.754-13.785 29.539-29.539 29.539H187.077c-15.754 0-29.539-13.785-29.539-29.539V640c0-13.785-13.784-29.538-29.538-29.538H68.923c-15.754 0-29.538 15.753-29.538 29.538v265.846c0 43.323 35.446 78.77 78.769 78.77h787.692c43.323 0 78.77-35.447 78.77-78.77V640c0-13.785-13.785-29.538-29.54-29.538zm-423.385-563.2c-11.815-11.816-29.538-11.816-41.354 0L224.492 313.108c-11.815 11.815-11.815 29.538 0 41.354l41.354 41.353c11.816 11.816 29.539 11.816 41.354 0l110.277-110.277c11.815-11.815 35.446-3.938 35.446 13.785V716.8c0 15.754 11.815 29.538 27.57 29.538h59.076c15.754 0 31.508-15.753 31.508-29.538V301.292c0-17.723 19.692-25.6 33.477-13.784L714.83 397.785c11.815 11.815 29.538 11.815 41.354 0l41.353-41.354c11.816-11.816 11.816-29.539 0-41.354L531.692 47.262z"/></svg>